<svg width="80" height="80" viewBox="0 0 24 24" fill="none" xmlns="http://www.w3.org/2000/svg">
    <rect width="24" height="24" rx="4" fill="#FFDDC1"/>
    <path d="M10 8.5C10 9.88071 8.88071 11 7.5 11C6.11929 11 5 9.88071 5 8.5C5 7.11929 6.11929 6 7.5 6C8.88071 6 10 7.11929 10 8.5Z" stroke="#3F4448" stroke-width="1.5"/>
    <path d="M12 19H5C5 15.6863 7.68629 13 11 13H12" stroke="#3F4448" stroke-width="1.5" stroke-linecap="round"/>
    <path d="M18.5 12.5C18.5 14.7091 16.7091 16.5 14.5 16.5C12.2909 16.5 10.5 14.7091 10.5 12.5C10.5 10.2909 12.2909 8.5 14.5 8.5C16.7091 8.5 18.5 10.2909 18.5 12.5Z" stroke="#3F4448" stroke-width="1.5"/>
    <path d="M14.5 16.5V20.5" stroke="#3F4448" stroke-width="1.5" stroke-linecap="round"/>
</svg>
