<svg width="80" height="80" viewBox="0 0 24 24" fill="none" xmlns="http://www.w3.org/2000/svg">
    <rect width="24" height="24" rx="4" fill="#74B7A0"/>
    <path d="M12 14C14.2091 14 16 12.2091 16 10C16 7.79086 14.2091 6 12 6C9.79086 6 8 7.79086 8 10C8 12.2091 9.79086 14 12 14Z" stroke="white" stroke-width="1.5"/>
    <path d="M12 4V2" stroke="white" stroke-width="1.5" stroke-linecap="round"/>
    <path d="M12 22V20" stroke="white" stroke-width="1.5" stroke-linecap="round"/>
    <path d="M18.364 5.63604L19.7782 4.22183" stroke="white" stroke-width="1.5" stroke-linecap="round"/>
    <path d="M4.2218 19.7782L5.63601 18.364" stroke="white" stroke-width="1.5" stroke-linecap="round"/>
    <path d="M20 12L22 12" stroke="white" stroke-width="1.5" stroke-linecap="round"/>
    <path d="M2 12L4 12" stroke="white" stroke-width="1.5" stroke-linecap="round"/>
    <path d="M18.364 18.364L19.7782 19.7782" stroke="white" stroke-width="1.5" stroke-linecap="round"/>
    <path d="M4.2218 4.22183L5.63601 5.63604" stroke="white" stroke-width="1.5" stroke-linecap="round"/>
</svg>
