<svg width="80" height="80" viewBox="0 0 24 24" fill="none" xmlns="http://www.w3.org/2000/svg">
    <rect width="24" height="24" rx="4" fill="#74B7A0"/>
    <path d="M12 3V21" stroke="white" stroke-width="1.5" stroke-linecap="round"/>
    <path d="M16 8C16 6.89543 14.2091 6 12 6C9.79086 6 8 6.89543 8 8C8 9.10457 9.79086 10 12 10C14.2091 10 16 9.10457 16 8Z" stroke="white" stroke-width="1.5"/>
    <path d="M16 16C16 14.8954 14.2091 14 12 14C9.79086 14 8 14.8954 8 16C8 17.1046 9.79086 18 12 18C14.2091 18 16 17.1046 16 16Z" stroke="white" stroke-width="1.5"/>
</svg>
